# Blender v2.91.0 OBJ File: ''
# www.blender.org
mtllib face.mtl
o Cylinder
v 0.000000 -0.079129 -1.000000
v 0.000000 0.079129 -1.000000
v 0.195090 -0.079129 -0.980785
v 0.195090 0.079129 -0.980785
v 0.382683 -0.079129 -0.923880
v 0.382683 0.079129 -0.923880
v 0.555570 -0.079129 -0.831470
v 0.555570 0.079129 -0.831470
v 0.707107 -0.079129 -0.707107
v 0.707107 0.079129 -0.707107
v 0.831470 -0.079129 -0.555570
v 0.831470 0.079129 -0.555570
v 0.923880 -0.079129 -0.382683
v 0.923880 0.079129 -0.382683
v 0.980785 -0.079129 -0.195090
v 0.980785 0.079129 -0.195090
v 1.000000 -0.079129 -0.000000
v 1.000000 0.079129 -0.000000
v 0.980785 -0.079129 0.195090
v 0.980785 0.079129 0.195090
v 0.923880 -0.079129 0.382683
v 0.923880 0.079129 0.382683
v 0.831470 -0.079129 0.555570
v 0.831470 0.079129 0.555570
v 0.707107 -0.079129 0.707107
v 0.707107 0.079129 0.707107
v 0.555570 -0.079129 0.831470
v 0.555570 0.079129 0.831470
v 0.382683 -0.079129 0.923880
v 0.382683 0.079129 0.923880
v 0.195090 -0.079129 0.980785
v 0.195090 0.079129 0.980785
v -0.000000 -0.079129 1.000000
v -0.000000 0.079129 1.000000
v -0.195091 -0.079129 0.980785
v -0.195091 0.079129 0.980785
v -0.382684 -0.079129 0.923879
v -0.382684 0.079129 0.923879
v -0.555571 -0.079129 0.831469
v -0.555571 0.079129 0.831469
v -0.707107 -0.079129 0.707106
v -0.707107 0.079129 0.707106
v -0.831470 -0.079129 0.555570
v -0.831470 0.079129 0.555570
v -0.923880 -0.079129 0.382683
v -0.923880 0.079129 0.382683
v -0.980785 -0.079129 0.195089
v -0.980785 0.079129 0.195089
v -1.000000 -0.079129 -0.000001
v -1.000000 0.079129 -0.000001
v -0.980785 -0.079129 -0.195091
v -0.980785 0.079129 -0.195091
v -0.923879 -0.079129 -0.382684
v -0.923879 0.079129 -0.382684
v -0.831469 -0.079129 -0.555571
v -0.831469 0.079129 -0.555571
v -0.707106 -0.079129 -0.707108
v -0.707106 0.079129 -0.707108
v -0.555569 -0.079129 -0.831470
v -0.555569 0.079129 -0.831470
v -0.382682 -0.079129 -0.923880
v -0.382682 0.079129 -0.923880
v -0.195089 -0.079129 -0.980786
v -0.195089 0.079129 -0.980786
vt 1.011194 1.085821
vt 1.011194 1.585821
vt 0.979944 1.585821
vt 0.979944 1.085821
vt 0.948694 1.585821
vt 0.948694 1.085821
vt 0.917444 1.585821
vt 0.917444 1.085821
vt 0.886194 1.585821
vt 0.886194 1.085821
vt 0.854944 1.585821
vt 0.854944 1.085821
vt 0.823694 1.585821
vt 0.823694 1.085821
vt 0.792444 1.585821
vt 0.792444 1.085821
vt 0.761194 1.585821
vt 0.761194 1.085821
vt 0.729944 1.585821
vt 0.729944 1.085821
vt 0.698694 1.585821
vt 0.698694 1.085821
vt 0.667444 1.585821
vt 0.667444 1.085821
vt 0.636194 1.585821
vt 0.636194 1.085821
vt 0.604944 1.585821
vt 0.604944 1.085821
vt 0.573694 1.585821
vt 0.573694 1.085821
vt 0.542444 1.585821
vt 0.542444 1.085821
vt 0.511194 1.585821
vt 0.511194 1.085821
vt 0.479944 1.585821
vt 0.479944 1.085821
vt 0.448694 1.585821
vt 0.448694 1.085821
vt 0.417444 1.585821
vt 0.417444 1.085821
vt 0.386194 1.585821
vt 0.386194 1.085821
vt 0.354944 1.585821
vt 0.354944 1.085821
vt 0.323694 1.585821
vt 0.323694 1.085821
vt 0.292444 1.585821
vt 0.292444 1.085821
vt 0.261194 1.585821
vt 0.261194 1.085821
vt 0.229944 1.585821
vt 0.229944 1.085821
vt 0.198694 1.585821
vt 0.198694 1.085821
vt 0.167444 1.585821
vt 0.167444 1.085821
vt 0.136194 1.585821
vt 0.136194 1.085821
vt 0.104944 1.585821
vt 0.104944 1.085821
vt 0.073694 1.585821
vt 0.073694 1.085821
vt 0.705807 0.055459
vt 0.787761 0.109662
vt 0.857797 0.178579
vt 0.913222 0.259561
vt 0.951908 0.349497
vt 0.972366 0.444929
vt 0.973811 0.542191
vt 0.956187 0.637545
vt 0.920173 0.727326
vt 0.867150 0.808084
vt 0.799158 0.876716
vt 0.718809 0.930585
vt 0.629192 0.967619
vt 0.533749 0.986396
vt 0.436148 0.986195
vt 0.340141 0.967022
vt 0.249417 0.929616
vt 0.167462 0.875412
vt 0.097427 0.806495
vt 0.042001 0.725513
vt 0.003316 0.635577
vt -0.017142 0.540145
vt -0.018587 0.442883
vt -0.000964 0.347529
vt 0.035051 0.257748
vt 0.088074 0.176990
vt 0.156066 0.108358
vt 0.236415 0.054490
vt 0.326033 0.017455
vt 0.421476 -0.001322
vt 0.519076 -0.001120
vt 0.615083 0.018052
vt 0.042444 1.585821
vt 0.042444 1.085821
vt 0.011194 1.585821
vt 0.011194 1.085821
vt 0.486940 0.990940
vt 0.580584 0.981256
vt 0.670628 0.952576
vt 0.753614 0.906001
vt 0.826352 0.843322
vt 0.886046 0.766948
vt 0.930403 0.679813
vt 0.957717 0.585266
vt 0.966940 0.486940
vt 0.957717 0.388615
vt 0.930403 0.294068
vt 0.886046 0.206933
vt 0.826352 0.130558
vt 0.753614 0.067880
vt 0.670628 0.021305
vt 0.580584 -0.007376
vt 0.486940 -0.017060
vt 0.393297 -0.007376
vt 0.303252 0.021305
vt 0.220266 0.067880
vt 0.147529 0.130559
vt 0.087835 0.206933
vt 0.043478 0.294068
vt 0.016163 0.388615
vt 0.006940 0.486941
vt 0.016164 0.585266
vt 0.043478 0.679813
vt 0.087835 0.766948
vt 0.147530 0.843323
vt 0.220267 0.906001
vt 0.303253 0.952576
vt 0.393298 0.981256
vn 0.0980 0.0000 -0.9952
vn 0.2903 0.0000 -0.9569
vn 0.4714 0.0000 -0.8819
vn 0.6344 0.0000 -0.7730
vn 0.7730 0.0000 -0.6344
vn 0.8819 0.0000 -0.4714
vn 0.9569 0.0000 -0.2903
vn 0.9952 0.0000 -0.0980
vn 0.9952 0.0000 0.0980
vn 0.9569 0.0000 0.2903
vn 0.8819 0.0000 0.4714
vn 0.7730 0.0000 0.6344
vn 0.6344 0.0000 0.7730
vn 0.4714 0.0000 0.8819
vn 0.2903 0.0000 0.9569
vn 0.0980 0.0000 0.9952
vn -0.0980 0.0000 0.9952
vn -0.2903 0.0000 0.9569
vn -0.4714 0.0000 0.8819
vn -0.6344 0.0000 0.7730
vn -0.7730 0.0000 0.6344
vn -0.8819 0.0000 0.4714
vn -0.9569 0.0000 0.2903
vn -0.9952 0.0000 0.0980
vn -0.9952 0.0000 -0.0980
vn -0.9569 0.0000 -0.2903
vn -0.8819 0.0000 -0.4714
vn -0.7730 0.0000 -0.6344
vn -0.6344 0.0000 -0.7730
vn -0.4714 0.0000 -0.8819
vn 0.0000 1.0000 -0.0000
vn -0.2903 0.0000 -0.9569
vn -0.0980 0.0000 -0.9952
vn 0.0000 -1.0000 -0.0000
usemtl Material.001
s off
f 1/1/1 2/2/1 4/3/1 3/4/1
f 3/4/2 4/3/2 6/5/2 5/6/2
f 5/6/3 6/5/3 8/7/3 7/8/3
f 7/8/4 8/7/4 10/9/4 9/10/4
f 9/10/5 10/9/5 12/11/5 11/12/5
f 11/12/6 12/11/6 14/13/6 13/14/6
f 13/14/7 14/13/7 16/15/7 15/16/7
f 15/16/8 16/15/8 18/17/8 17/18/8
f 17/18/9 18/17/9 20/19/9 19/20/9
f 19/20/10 20/19/10 22/21/10 21/22/10
f 21/22/11 22/21/11 24/23/11 23/24/11
f 23/24/12 24/23/12 26/25/12 25/26/12
f 25/26/13 26/25/13 28/27/13 27/28/13
f 27/28/14 28/27/14 30/29/14 29/30/14
f 29/30/15 30/29/15 32/31/15 31/32/15
f 31/32/16 32/31/16 34/33/16 33/34/16
f 33/34/17 34/33/17 36/35/17 35/36/17
f 35/36/18 36/35/18 38/37/18 37/38/18
f 37/38/19 38/37/19 40/39/19 39/40/19
f 39/40/20 40/39/20 42/41/20 41/42/20
f 41/42/21 42/41/21 44/43/21 43/44/21
f 43/44/22 44/43/22 46/45/22 45/46/22
f 45/46/23 46/45/23 48/47/23 47/48/23
f 47/48/24 48/47/24 50/49/24 49/50/24
f 49/50/25 50/49/25 52/51/25 51/52/25
f 51/52/26 52/51/26 54/53/26 53/54/26
f 53/54/27 54/53/27 56/55/27 55/56/27
f 55/56/28 56/55/28 58/57/28 57/58/28
f 57/58/29 58/57/29 60/59/29 59/60/29
f 59/60/30 60/59/30 62/61/30 61/62/30
f 4/63/31 2/64/31 64/65/31 62/66/31 60/67/31 58/68/31 56/69/31 54/70/31 52/71/31 50/72/31 48/73/31 46/74/31 44/75/31 42/76/31 40/77/31 38/78/31 36/79/31 34/80/31 32/81/31 30/82/31 28/83/31 26/84/31 24/85/31 22/86/31 20/87/31 18/88/31 16/89/31 14/90/31 12/91/31 10/92/31 8/93/31 6/94/31
f 61/62/32 62/61/32 64/95/32 63/96/32
f 63/96/33 64/95/33 2/97/33 1/98/33
f 1/99/34 3/100/34 5/101/34 7/102/34 9/103/34 11/104/34 13/105/34 15/106/34 17/107/34 19/108/34 21/109/34 23/110/34 25/111/34 27/112/34 29/113/34 31/114/34 33/115/34 35/116/34 37/117/34 39/118/34 41/119/34 43/120/34 45/121/34 47/122/34 49/123/34 51/124/34 53/125/34 55/126/34 57/127/34 59/128/34 61/129/34 63/130/34
